<mxfile host="app.diagrams.net" modified="2022-03-02T14:57:25.998Z" agent="5.0 (Macintosh; Intel Mac OS X 10_15_7) AppleWebKit/537.36 (KHTML, like Gecko) Chrome/96.0.4664.110 Safari/537.36" etag="4VdvV_HhAtykW9GU2vdH" version="16.2.7" type="github">
  <diagram id="alZQ3J86ST5cV5qMbJnk" name="Page-1">
    <mxGraphModel dx="2262" dy="1464" grid="1" gridSize="10" guides="1" tooltips="1" connect="1" arrows="1" fold="1" page="1" pageScale="1" pageWidth="827" pageHeight="1169" math="0" shadow="0">
      <root>
        <mxCell id="0" />
        <mxCell id="1" parent="0" />
        <mxCell id="xxxQAEl9UntY1xKv4p_2-1" value="" style="rounded=1;whiteSpace=wrap;html=1;comic=0;pointerEvents=1;strokeWidth=6;strokeColor=#787878;" vertex="1" parent="1">
          <mxGeometry x="50" y="1209" width="1550" height="741" as="geometry" />
        </mxCell>
        <mxCell id="xxxQAEl9UntY1xKv4p_2-2" value="" style="rounded=1;whiteSpace=wrap;html=1;strokeWidth=6;strokeColor=#757575;" vertex="1" parent="1">
          <mxGeometry x="700" y="520" width="914" height="631.25" as="geometry" />
        </mxCell>
        <mxCell id="xxxQAEl9UntY1xKv4p_2-3" value="" style="shape=partialRectangle;whiteSpace=wrap;html=1;bottom=1;right=1;left=1;top=0;fillColor=none;routingCenterX=-0.5;" vertex="1" parent="1">
          <mxGeometry x="880" y="956" width="120" height="27" as="geometry" />
        </mxCell>
        <mxCell id="xxxQAEl9UntY1xKv4p_2-4" value="&lt;font&gt;&lt;font style=&quot;font-size: 28px&quot;&gt;Tok&lt;/font&gt;&lt;sub&gt;&lt;font style=&quot;font-size: 20px&quot;&gt;1&lt;/font&gt;&lt;/sub&gt;&lt;/font&gt;" style="rounded=1;whiteSpace=wrap;html=1;fillColor=#e1d5e7;strokeColor=#9673a6;" vertex="1" parent="1">
          <mxGeometry x="840" y="929" width="85" height="37" as="geometry" />
        </mxCell>
        <mxCell id="xxxQAEl9UntY1xKv4p_2-5" value="&lt;font&gt;&lt;font style=&quot;font-size: 28px&quot;&gt;Tok&lt;/font&gt;&lt;sub&gt;&lt;font style=&quot;font-size: 20px&quot;&gt;M&lt;/font&gt;&lt;/sub&gt;&lt;/font&gt;" style="rounded=1;whiteSpace=wrap;html=1;fillColor=#e1d5e7;strokeColor=#9673a6;" vertex="1" parent="1">
          <mxGeometry x="958" y="928.5" width="78" height="37" as="geometry" />
        </mxCell>
        <mxCell id="xxxQAEl9UntY1xKv4p_2-6" value="&lt;font style=&quot;font-size: 28px&quot;&gt;[SEP]&lt;/font&gt;" style="rounded=1;whiteSpace=wrap;html=1;fillColor=#e1d5e7;strokeColor=#9673a6;" vertex="1" parent="1">
          <mxGeometry x="1043" y="929" width="84" height="36.5" as="geometry" />
        </mxCell>
        <mxCell id="xxxQAEl9UntY1xKv4p_2-7" value="&lt;font style=&quot;font-size: 28px&quot;&gt;[CLS]&lt;/font&gt;" style="rounded=1;whiteSpace=wrap;html=1;fillColor=#e1d5e7;strokeColor=#9673a6;" vertex="1" parent="1">
          <mxGeometry x="749" y="929" width="85" height="36.5" as="geometry" />
        </mxCell>
        <mxCell id="xxxQAEl9UntY1xKv4p_2-8" value="&lt;span style=&quot;font-size: 28px&quot;&gt;LanguageModel&lt;/span&gt;" style="shape=ext;double=1;rounded=0;whiteSpace=wrap;html=1;fillColor=#ffe6cc;strokeColor=#d79b00;" vertex="1" parent="1">
          <mxGeometry x="737" y="752.5" width="395.5" height="146" as="geometry" />
        </mxCell>
        <mxCell id="xxxQAEl9UntY1xKv4p_2-9" value="&lt;font&gt;&lt;font style=&quot;font-size: 28px&quot;&gt;E&lt;/font&gt;&lt;sub&gt;&lt;font style=&quot;font-size: 20px&quot;&gt;[CLS]&lt;/font&gt;&lt;/sub&gt;&lt;/font&gt;" style="rounded=1;whiteSpace=wrap;html=1;fillColor=#f8cecc;strokeColor=#b85450;strokeWidth=1;perimeterSpacing=4;" vertex="1" parent="1">
          <mxGeometry x="757" y="835.5" width="71" height="37.5" as="geometry" />
        </mxCell>
        <mxCell id="xxxQAEl9UntY1xKv4p_2-10" value="&lt;font&gt;&lt;font style=&quot;font-size: 28px&quot;&gt;E&lt;/font&gt;&lt;sub&gt;&lt;font style=&quot;font-size: 20px&quot;&gt;1&lt;/font&gt;&lt;/sub&gt;&lt;/font&gt;" style="rounded=1;whiteSpace=wrap;html=1;fillColor=#f8cecc;strokeColor=#b85450;strokeWidth=1;perimeterSpacing=4;" vertex="1" parent="1">
          <mxGeometry x="840.5" y="839.25" width="78.5" height="37.5" as="geometry" />
        </mxCell>
        <mxCell id="xxxQAEl9UntY1xKv4p_2-11" value="&lt;font&gt;&lt;font style=&quot;font-size: 28px&quot;&gt;E&lt;/font&gt;&lt;sub&gt;&lt;font style=&quot;font-size: 20px&quot;&gt;[SEP]&lt;/font&gt;&lt;/sub&gt;&lt;/font&gt;" style="rounded=1;whiteSpace=wrap;html=1;fillColor=#f8cecc;strokeColor=#b85450;strokeWidth=1;perimeterSpacing=4;" vertex="1" parent="1">
          <mxGeometry x="1042" y="838" width="74" height="37.5" as="geometry" />
        </mxCell>
        <mxCell id="xxxQAEl9UntY1xKv4p_2-12" value="&lt;font&gt;&lt;font style=&quot;font-size: 28px&quot;&gt;E&lt;/font&gt;&lt;sub&gt;&lt;font style=&quot;font-size: 20px&quot;&gt;M&lt;/font&gt;&lt;/sub&gt;&lt;/font&gt;" style="rounded=1;whiteSpace=wrap;html=1;fillColor=#f8cecc;strokeColor=#b85450;strokeWidth=1;perimeterSpacing=4;" vertex="1" parent="1">
          <mxGeometry x="959.5" y="840.5" width="75" height="37.5" as="geometry" />
        </mxCell>
        <mxCell id="xxxQAEl9UntY1xKv4p_2-13" value="&lt;font style=&quot;font-size: 28px&quot;&gt;&lt;font style=&quot;font-size: 28px&quot;&gt;T&lt;/font&gt;&lt;sub&gt;1&lt;/sub&gt;&lt;/font&gt;" style="rounded=1;whiteSpace=wrap;html=1;fillColor=#dae8fc;strokeColor=#6c8ebf;" vertex="1" parent="1">
          <mxGeometry x="840.5" y="763" width="78.5" height="33.5" as="geometry" />
        </mxCell>
        <mxCell id="xxxQAEl9UntY1xKv4p_2-14" value="&lt;font&gt;&lt;font style=&quot;font-size: 28px&quot;&gt;T&lt;/font&gt;&lt;sub&gt;&lt;font style=&quot;font-size: 20px&quot;&gt;[SEP]&lt;/font&gt;&lt;/sub&gt;&lt;/font&gt;" style="rounded=1;whiteSpace=wrap;html=1;fillColor=#dae8fc;strokeColor=#6c8ebf;" vertex="1" parent="1">
          <mxGeometry x="1042" y="763" width="72" height="33.5" as="geometry" />
        </mxCell>
        <mxCell id="xxxQAEl9UntY1xKv4p_2-15" value="&lt;font&gt;&lt;font style=&quot;font-size: 28px&quot;&gt;T&lt;/font&gt;&lt;sub&gt;&lt;font style=&quot;font-size: 20px&quot;&gt;M&lt;/font&gt;&lt;/sub&gt;&lt;/font&gt;" style="rounded=1;whiteSpace=wrap;html=1;fillColor=#dae8fc;strokeColor=#6c8ebf;" vertex="1" parent="1">
          <mxGeometry x="958" y="763" width="75" height="33.5" as="geometry" />
        </mxCell>
        <mxCell id="xxxQAEl9UntY1xKv4p_2-16" value="&lt;font style=&quot;font-size: 28px&quot;&gt;V&lt;/font&gt;&lt;font style=&quot;font-size: 23.3333px&quot;&gt;&lt;sub&gt;t&lt;/sub&gt;&lt;/font&gt;" style="rounded=0;whiteSpace=wrap;html=1;fillColor=#d5e8d4;strokeColor=#82b366;" vertex="1" parent="1">
          <mxGeometry x="756" y="657" width="96" height="53" as="geometry" />
        </mxCell>
        <mxCell id="xxxQAEl9UntY1xKv4p_2-17" value="" style="shape=flexArrow;endArrow=classic;html=1;fillColor=#f8cecc;strokeColor=#b85450;" edge="1" parent="1">
          <mxGeometry width="50" height="50" relative="1" as="geometry">
            <mxPoint x="802" y="752" as="sourcePoint" />
            <mxPoint x="802" y="708" as="targetPoint" />
            <Array as="points">
              <mxPoint x="802" y="727.5" />
            </Array>
          </mxGeometry>
        </mxCell>
        <mxCell id="xxxQAEl9UntY1xKv4p_2-18" value="" style="shape=flexArrow;endArrow=classic;html=1;" edge="1" parent="1">
          <mxGeometry width="50" height="50" relative="1" as="geometry">
            <mxPoint x="805" y="923" as="sourcePoint" />
            <mxPoint x="805" y="879" as="targetPoint" />
          </mxGeometry>
        </mxCell>
        <mxCell id="xxxQAEl9UntY1xKv4p_2-19" value="" style="shape=flexArrow;endArrow=classic;html=1;" edge="1" parent="1">
          <mxGeometry width="50" height="50" relative="1" as="geometry">
            <mxPoint x="880" y="923" as="sourcePoint" />
            <mxPoint x="880" y="879" as="targetPoint" />
          </mxGeometry>
        </mxCell>
        <mxCell id="xxxQAEl9UntY1xKv4p_2-20" value="" style="shape=flexArrow;endArrow=classic;html=1;" edge="1" parent="1">
          <mxGeometry width="50" height="50" relative="1" as="geometry">
            <mxPoint x="1000" y="923" as="sourcePoint" />
            <mxPoint x="1000" y="879" as="targetPoint" />
          </mxGeometry>
        </mxCell>
        <mxCell id="xxxQAEl9UntY1xKv4p_2-21" value="" style="shape=flexArrow;endArrow=classic;html=1;" edge="1" parent="1">
          <mxGeometry width="50" height="50" relative="1" as="geometry">
            <mxPoint x="1095" y="923" as="sourcePoint" />
            <mxPoint x="1095" y="879" as="targetPoint" />
          </mxGeometry>
        </mxCell>
        <mxCell id="xxxQAEl9UntY1xKv4p_2-22" value="&lt;font style=&quot;font-size: 37px&quot;&gt;阶段2 语言模型训练&lt;/font&gt;" style="text;strokeColor=none;fillColor=none;html=1;fontSize=24;fontStyle=1;verticalAlign=middle;align=center;" vertex="1" parent="1">
          <mxGeometry x="1339.5" y="560" width="182" height="65" as="geometry" />
        </mxCell>
        <mxCell id="xxxQAEl9UntY1xKv4p_2-23" value="" style="shape=waypoint;sketch=0;size=6;pointerEvents=1;points=[];fillColor=none;resizable=0;rotatable=0;perimeter=centerPerimeter;snapToPoint=1;strokeWidth=1;strokeColor=#787878;" vertex="1" parent="1">
          <mxGeometry x="914.5" y="839.5" width="40" height="40" as="geometry" />
        </mxCell>
        <mxCell id="xxxQAEl9UntY1xKv4p_2-24" value="" style="shape=waypoint;sketch=0;size=6;pointerEvents=1;points=[];fillColor=none;resizable=0;rotatable=0;perimeter=centerPerimeter;snapToPoint=1;strokeWidth=1;strokeColor=#787878;" vertex="1" parent="1">
          <mxGeometry x="925.5" y="839.5" width="40" height="40" as="geometry" />
        </mxCell>
        <mxCell id="xxxQAEl9UntY1xKv4p_2-25" value="" style="shape=waypoint;sketch=0;size=6;pointerEvents=1;points=[];fillColor=none;resizable=0;rotatable=0;perimeter=centerPerimeter;snapToPoint=1;strokeWidth=1;strokeColor=#787878;" vertex="1" parent="1">
          <mxGeometry x="914.5" y="756.5" width="40" height="40" as="geometry" />
        </mxCell>
        <mxCell id="xxxQAEl9UntY1xKv4p_2-26" value="" style="shape=waypoint;sketch=0;size=6;pointerEvents=1;points=[];fillColor=none;resizable=0;rotatable=0;perimeter=centerPerimeter;snapToPoint=1;strokeWidth=1;strokeColor=#787878;" vertex="1" parent="1">
          <mxGeometry x="925.5" y="756.5" width="40" height="40" as="geometry" />
        </mxCell>
        <UserObject label="&lt;font style=&quot;font-size: 28px&quot;&gt;bug报告=(summary,description)&lt;/font&gt;" placeholders="1" name="Variable" id="xxxQAEl9UntY1xKv4p_2-27">
          <mxCell style="text;html=1;strokeColor=#6c8ebf;fillColor=#dae8fc;align=center;verticalAlign=middle;whiteSpace=wrap;overflow=hidden;" vertex="1" parent="1">
            <mxGeometry x="230" y="1630.75" width="286" height="108.5" as="geometry" />
          </mxCell>
        </UserObject>
        <UserObject label="&lt;font style=&quot;font-size: 28px&quot;&gt;源文件=(func&lt;sub&gt;1&lt;/sub&gt;,...,func&lt;sub&gt;k&lt;/sub&gt;)&lt;/font&gt;" placeholders="1" name="Variable" id="xxxQAEl9UntY1xKv4p_2-28">
          <mxCell style="text;html=1;strokeColor=#6c8ebf;fillColor=#dae8fc;align=center;verticalAlign=middle;whiteSpace=wrap;overflow=hidden;" vertex="1" parent="1">
            <mxGeometry x="605" y="1630.75" width="275" height="108.5" as="geometry" />
          </mxCell>
        </UserObject>
        <UserObject label="&lt;font style=&quot;font-size: 38px&quot;&gt;sum.&lt;/font&gt;" placeholders="1" name="Variable" id="xxxQAEl9UntY1xKv4p_2-29">
          <mxCell style="text;html=1;strokeColor=none;fillColor=none;align=center;verticalAlign=middle;whiteSpace=wrap;overflow=hidden;" vertex="1" parent="1">
            <mxGeometry x="192.5" y="1310" width="94.5" height="39.5" as="geometry" />
          </mxCell>
        </UserObject>
        <UserObject label="&lt;font style=&quot;font-size: 38px&quot;&gt;desc.&lt;/font&gt;" placeholders="1" name="Variable" id="xxxQAEl9UntY1xKv4p_2-30">
          <mxCell style="text;html=1;strokeColor=none;fillColor=none;align=center;verticalAlign=middle;whiteSpace=wrap;overflow=hidden;" vertex="1" parent="1">
            <mxGeometry x="179.25" y="1370" width="121" height="47" as="geometry" />
          </mxCell>
        </UserObject>
        <UserObject label="&lt;font style=&quot;font-size: 38px&quot;&gt;&lt;font style=&quot;font-size: 38px&quot;&gt;func&lt;/font&gt;&lt;font style=&quot;font-size: 38px&quot;&gt;&lt;sub&gt;k&lt;/sub&gt;&lt;/font&gt;&lt;/font&gt;" placeholders="1" name="Variable" id="xxxQAEl9UntY1xKv4p_2-31">
          <mxCell style="text;html=1;strokeColor=none;fillColor=none;align=center;verticalAlign=middle;whiteSpace=wrap;overflow=hidden;" vertex="1" parent="1">
            <mxGeometry x="629.5" y="1254" width="125.5" height="44" as="geometry" />
          </mxCell>
        </UserObject>
        <mxCell id="xxxQAEl9UntY1xKv4p_2-32" value="" style="shape=waypoint;sketch=0;size=6;pointerEvents=1;points=[];fillColor=none;resizable=0;rotatable=0;perimeter=centerPerimeter;snapToPoint=1;strokeWidth=1;strokeColor=#787878;" vertex="1" parent="1">
          <mxGeometry x="522" y="1259.5" width="40" height="40" as="geometry" />
        </mxCell>
        <mxCell id="xxxQAEl9UntY1xKv4p_2-33" value="" style="shape=waypoint;sketch=0;size=6;pointerEvents=1;points=[];fillColor=none;resizable=0;rotatable=0;perimeter=centerPerimeter;snapToPoint=1;strokeWidth=1;strokeColor=#787878;" vertex="1" parent="1">
          <mxGeometry x="558.5" y="1259.5" width="40" height="40" as="geometry" />
        </mxCell>
        <mxCell id="xxxQAEl9UntY1xKv4p_2-34" value="" style="shape=waypoint;sketch=0;size=6;pointerEvents=1;points=[];fillColor=none;resizable=0;rotatable=0;perimeter=centerPerimeter;snapToPoint=1;strokeWidth=1;strokeColor=#787878;" vertex="1" parent="1">
          <mxGeometry x="489" y="1259.5" width="40" height="40" as="geometry" />
        </mxCell>
        <mxCell id="xxxQAEl9UntY1xKv4p_2-35" value="&lt;font size=&quot;1&quot;&gt;&lt;b style=&quot;font-size: 28px&quot;&gt;fine-tune LM&lt;/b&gt;&lt;/font&gt;" style="rounded=1;whiteSpace=wrap;html=1;strokeColor=#d79b00;strokeWidth=1;fillColor=#ffe6cc;" vertex="1" parent="1">
          <mxGeometry x="413" y="1475" width="269" height="111.5" as="geometry" />
        </mxCell>
        <mxCell id="xxxQAEl9UntY1xKv4p_2-36" value="" style="endArrow=classic;html=1;exitX=0.5;exitY=0;exitDx=0;exitDy=0;entryX=0.631;entryY=1.017;entryDx=0;entryDy=0;entryPerimeter=0;" edge="1" parent="1" source="xxxQAEl9UntY1xKv4p_2-28" target="xxxQAEl9UntY1xKv4p_2-35">
          <mxGeometry width="50" height="50" relative="1" as="geometry">
            <mxPoint x="621" y="1574.5" as="sourcePoint" />
            <mxPoint x="733.5" y="1538.87" as="targetPoint" />
          </mxGeometry>
        </mxCell>
        <mxCell id="xxxQAEl9UntY1xKv4p_2-37" value="&lt;font style=&quot;font-size: 28px&quot;&gt;max,mean&lt;/font&gt;" style="rounded=1;whiteSpace=wrap;html=1;strokeWidth=1;fillColor=#dae8fc;gradientColor=#7ea6e0;strokeColor=#6c8ebf;" vertex="1" parent="1">
          <mxGeometry x="808" y="1248" width="142" height="61.5" as="geometry" />
        </mxCell>
        <mxCell id="xxxQAEl9UntY1xKv4p_2-38" value="" style="shape=flexArrow;endArrow=classic;html=1;fillColor=#fad9d5;strokeColor=#ae4132;" edge="1" parent="1">
          <mxGeometry width="50" height="50" relative="1" as="geometry">
            <mxPoint x="802" y="1343.75" as="sourcePoint" />
            <mxPoint x="973" y="1344.25" as="targetPoint" />
          </mxGeometry>
        </mxCell>
        <mxCell id="xxxQAEl9UntY1xKv4p_2-39" value="" style="endArrow=classic;html=1;exitX=0.5;exitY=0;exitDx=0;exitDy=0;" edge="1" parent="1" source="xxxQAEl9UntY1xKv4p_2-35">
          <mxGeometry width="50" height="50" relative="1" as="geometry">
            <mxPoint x="434" y="1470.5" as="sourcePoint" />
            <mxPoint x="548" y="1410" as="targetPoint" />
          </mxGeometry>
        </mxCell>
        <mxCell id="xxxQAEl9UntY1xKv4p_2-40" value="" style="shape=table;html=1;whiteSpace=wrap;startSize=0;container=1;collapsible=0;childLayout=tableLayout;strokeColor=#d6b656;strokeWidth=1;resizeWidth=0;resizeHeight=1;treeFolding=0;treeMoving=0;resizable=0;rotatable=0;fillColor=#fff2cc;" vertex="1" parent="1">
          <mxGeometry x="973" y="1248" width="77" height="262" as="geometry" />
        </mxCell>
        <mxCell id="xxxQAEl9UntY1xKv4p_2-41" style="shape=partialRectangle;html=1;whiteSpace=wrap;collapsible=0;dropTarget=0;pointerEvents=0;fillColor=none;top=0;left=0;bottom=0;right=0;points=[[0,0.5],[1,0.5]];portConstraint=eastwest;" vertex="1" parent="xxxQAEl9UntY1xKv4p_2-40">
          <mxGeometry width="77" height="64" as="geometry" />
        </mxCell>
        <mxCell id="xxxQAEl9UntY1xKv4p_2-42" value="&lt;font&gt;&lt;font style=&quot;font-size: 28px&quot;&gt;S&lt;/font&gt;&lt;font style=&quot;font-size: 23.3333px&quot;&gt;mean&lt;/font&gt;&lt;/font&gt;" style="shape=partialRectangle;html=1;whiteSpace=wrap;connectable=0;fillColor=#f8cecc;top=0;left=0;bottom=0;right=0;overflow=hidden;flipV=0;gradientColor=#ea6b66;strokeColor=#b85450;" vertex="1" parent="xxxQAEl9UntY1xKv4p_2-41">
          <mxGeometry width="77" height="64" as="geometry">
            <mxRectangle width="77" height="64" as="alternateBounds" />
          </mxGeometry>
        </mxCell>
        <mxCell id="xxxQAEl9UntY1xKv4p_2-43" style="shape=partialRectangle;html=1;whiteSpace=wrap;collapsible=0;dropTarget=0;pointerEvents=0;fillColor=none;top=0;left=0;bottom=0;right=0;points=[[0,0.5],[1,0.5]];portConstraint=eastwest;" vertex="1" parent="xxxQAEl9UntY1xKv4p_2-40">
          <mxGeometry y="64" width="77" height="64" as="geometry" />
        </mxCell>
        <mxCell id="xxxQAEl9UntY1xKv4p_2-44" value="&lt;sub&gt;&lt;font style=&quot;font-size: 29px&quot;&gt;Smax&lt;/font&gt;&lt;/sub&gt;" style="shape=partialRectangle;html=1;whiteSpace=wrap;connectable=0;fillColor=#f8cecc;top=0;left=0;bottom=0;right=0;overflow=hidden;flipV=0;gradientColor=#ea6b66;strokeColor=#b85450;" vertex="1" parent="xxxQAEl9UntY1xKv4p_2-43">
          <mxGeometry width="77" height="64" as="geometry">
            <mxRectangle width="77" height="64" as="alternateBounds" />
          </mxGeometry>
        </mxCell>
        <mxCell id="xxxQAEl9UntY1xKv4p_2-45" style="shape=partialRectangle;html=1;whiteSpace=wrap;collapsible=0;dropTarget=0;pointerEvents=0;fillColor=none;top=0;left=0;bottom=0;right=0;points=[[0,0.5],[1,0.5]];portConstraint=eastwest;" vertex="1" parent="xxxQAEl9UntY1xKv4p_2-40">
          <mxGeometry y="128" width="77" height="67" as="geometry" />
        </mxCell>
        <mxCell id="xxxQAEl9UntY1xKv4p_2-46" value="&lt;font&gt;&lt;font&gt;&lt;sub&gt;&lt;span style=&quot;font-size: 28px&quot;&gt;Dmax&lt;/span&gt;&lt;/sub&gt;&lt;/font&gt;&lt;/font&gt;" style="shape=partialRectangle;html=1;whiteSpace=wrap;connectable=0;fillColor=#d5e8d4;top=0;left=0;bottom=0;right=0;overflow=hidden;flipV=0;gradientColor=#97d077;strokeColor=#82b366;" vertex="1" parent="xxxQAEl9UntY1xKv4p_2-45">
          <mxGeometry width="77" height="67" as="geometry">
            <mxRectangle width="77" height="67" as="alternateBounds" />
          </mxGeometry>
        </mxCell>
        <mxCell id="xxxQAEl9UntY1xKv4p_2-47" style="shape=partialRectangle;html=1;whiteSpace=wrap;collapsible=0;dropTarget=0;pointerEvents=0;fillColor=none;top=0;left=0;bottom=0;right=0;points=[[0,0.5],[1,0.5]];portConstraint=eastwest;" vertex="1" parent="xxxQAEl9UntY1xKv4p_2-40">
          <mxGeometry y="195" width="77" height="67" as="geometry" />
        </mxCell>
        <mxCell id="xxxQAEl9UntY1xKv4p_2-48" value="&lt;font style=&quot;font-size: 24px&quot;&gt;Dmean&lt;/font&gt;" style="shape=partialRectangle;html=1;whiteSpace=wrap;connectable=0;fillColor=#d5e8d4;top=0;left=0;bottom=0;right=0;overflow=hidden;flipV=0;gradientColor=#97d077;strokeColor=#82b366;" vertex="1" parent="xxxQAEl9UntY1xKv4p_2-47">
          <mxGeometry width="77" height="67" as="geometry">
            <mxRectangle width="77" height="67" as="alternateBounds" />
          </mxGeometry>
        </mxCell>
        <mxCell id="xxxQAEl9UntY1xKv4p_2-49" value="" style="shape=table;html=1;whiteSpace=wrap;startSize=0;container=1;collapsible=0;childLayout=tableLayout;strokeColor=#d6b656;strokeWidth=1;resizeWidth=0;resizeHeight=1;treeFolding=0;treeMoving=0;resizable=0;rotatable=0;fillColor=#fff2cc;" vertex="1" parent="1">
          <mxGeometry x="973" y="1510" width="77" height="267.5" as="geometry" />
        </mxCell>
        <mxCell id="xxxQAEl9UntY1xKv4p_2-50" style="shape=partialRectangle;html=1;whiteSpace=wrap;collapsible=0;dropTarget=0;pointerEvents=0;fillColor=none;top=0;left=0;bottom=0;right=0;points=[[0,0.5],[1,0.5]];portConstraint=eastwest;" vertex="1" parent="xxxQAEl9UntY1xKv4p_2-49">
          <mxGeometry width="77" height="67" as="geometry" />
        </mxCell>
        <mxCell id="xxxQAEl9UntY1xKv4p_2-51" value="&lt;font style=&quot;font-size: 28px&quot;&gt;&lt;font style=&quot;font-size: 28px&quot;&gt;F&lt;/font&gt;&lt;font style=&quot;font-size: 28px&quot;&gt;&lt;sub&gt;1&lt;/sub&gt;&lt;/font&gt;&lt;/font&gt;" style="shape=partialRectangle;html=1;whiteSpace=wrap;connectable=0;fillColor=none;top=0;left=0;bottom=0;right=0;overflow=hidden;flipV=0;" vertex="1" parent="xxxQAEl9UntY1xKv4p_2-50">
          <mxGeometry width="77" height="67" as="geometry">
            <mxRectangle width="77" height="67" as="alternateBounds" />
          </mxGeometry>
        </mxCell>
        <mxCell id="xxxQAEl9UntY1xKv4p_2-52" style="shape=partialRectangle;html=1;whiteSpace=wrap;collapsible=0;dropTarget=0;pointerEvents=0;fillColor=none;top=0;left=0;bottom=0;right=0;points=[[0,0.5],[1,0.5]];portConstraint=eastwest;" vertex="1" parent="xxxQAEl9UntY1xKv4p_2-49">
          <mxGeometry y="67" width="77" height="67" as="geometry" />
        </mxCell>
        <mxCell id="xxxQAEl9UntY1xKv4p_2-53" value="&lt;font style=&quot;font-size: 28px&quot;&gt;&lt;font style=&quot;font-size: 28px&quot;&gt;F&lt;/font&gt;&lt;font style=&quot;font-size: 28px&quot;&gt;&lt;sub&gt;2&lt;/sub&gt;&lt;/font&gt;&lt;/font&gt;" style="shape=partialRectangle;html=1;whiteSpace=wrap;connectable=0;fillColor=none;top=0;left=0;bottom=0;right=0;overflow=hidden;flipV=0;" vertex="1" parent="xxxQAEl9UntY1xKv4p_2-52">
          <mxGeometry width="77" height="67" as="geometry">
            <mxRectangle width="77" height="67" as="alternateBounds" />
          </mxGeometry>
        </mxCell>
        <mxCell id="xxxQAEl9UntY1xKv4p_2-54" style="shape=partialRectangle;html=1;whiteSpace=wrap;collapsible=0;dropTarget=0;pointerEvents=0;fillColor=none;top=0;left=0;bottom=0;right=0;points=[[0,0.5],[1,0.5]];portConstraint=eastwest;" vertex="1" parent="xxxQAEl9UntY1xKv4p_2-49">
          <mxGeometry y="134" width="77" height="67" as="geometry" />
        </mxCell>
        <mxCell id="xxxQAEl9UntY1xKv4p_2-55" value="" style="shape=partialRectangle;html=1;whiteSpace=wrap;connectable=0;fillColor=none;top=0;left=0;bottom=0;right=0;overflow=hidden;flipV=0;" vertex="1" parent="xxxQAEl9UntY1xKv4p_2-54">
          <mxGeometry width="77" height="67" as="geometry">
            <mxRectangle width="77" height="67" as="alternateBounds" />
          </mxGeometry>
        </mxCell>
        <mxCell id="xxxQAEl9UntY1xKv4p_2-56" style="shape=partialRectangle;html=1;whiteSpace=wrap;collapsible=0;dropTarget=0;pointerEvents=0;fillColor=none;top=0;left=0;bottom=0;right=0;points=[[0,0.5],[1,0.5]];portConstraint=eastwest;" vertex="1" parent="xxxQAEl9UntY1xKv4p_2-49">
          <mxGeometry y="201" width="77" height="67" as="geometry" />
        </mxCell>
        <mxCell id="xxxQAEl9UntY1xKv4p_2-57" value="&lt;font style=&quot;font-size: 28px&quot;&gt;&lt;font style=&quot;font-size: 28px&quot;&gt;F&lt;/font&gt;&lt;font style=&quot;font-size: 28px&quot;&gt;&lt;sub&gt;19&lt;/sub&gt;&lt;/font&gt;&lt;/font&gt;" style="shape=partialRectangle;html=1;whiteSpace=wrap;connectable=0;fillColor=none;top=0;left=0;bottom=0;right=0;overflow=hidden;flipV=0;" vertex="1" parent="xxxQAEl9UntY1xKv4p_2-56">
          <mxGeometry width="77" height="67" as="geometry">
            <mxRectangle width="77" height="67" as="alternateBounds" />
          </mxGeometry>
        </mxCell>
        <mxCell id="xxxQAEl9UntY1xKv4p_2-58" value="" style="shape=waypoint;sketch=0;size=6;pointerEvents=1;points=[];fillColor=none;resizable=0;rotatable=0;perimeter=centerPerimeter;snapToPoint=1;strokeWidth=1;strokeColor=#787878;" vertex="1" parent="1">
          <mxGeometry x="991.5" y="1643" width="40" height="40" as="geometry" />
        </mxCell>
        <mxCell id="xxxQAEl9UntY1xKv4p_2-59" value="" style="shape=waypoint;sketch=0;size=6;pointerEvents=1;points=[];fillColor=none;resizable=0;rotatable=0;perimeter=centerPerimeter;snapToPoint=1;strokeWidth=1;strokeColor=#787878;fontSize=14;" vertex="1" parent="1">
          <mxGeometry x="991.5" y="1665" width="40" height="40" as="geometry" />
        </mxCell>
        <mxCell id="xxxQAEl9UntY1xKv4p_2-60" value="&lt;font style=&quot;font-size: 28px&quot;&gt;IR Features&lt;/font&gt;" style="rounded=1;whiteSpace=wrap;html=1;strokeColor=#d79b00;strokeWidth=1;fillColor=#ffe6cc;" vertex="1" parent="1">
          <mxGeometry x="1064.5" y="1712" width="120" height="60" as="geometry" />
        </mxCell>
        <mxCell id="xxxQAEl9UntY1xKv4p_2-61" value="" style="shape=flexArrow;endArrow=classic;html=1;endWidth=42;endSize=7.488888888888889;width=33.333333333333336;fillColor=#dae8fc;strokeColor=#6c8ebf;" edge="1" parent="1">
          <mxGeometry width="50" height="50" relative="1" as="geometry">
            <mxPoint x="1082" y="1510.0000000000002" as="sourcePoint" />
            <mxPoint x="1184.5" y="1510" as="targetPoint" />
            <Array as="points">
              <mxPoint x="1120" y="1510" />
              <mxPoint x="1159" y="1510.0000000000002" />
            </Array>
          </mxGeometry>
        </mxCell>
        <mxCell id="xxxQAEl9UntY1xKv4p_2-62" value="" style="shape=flexArrow;endArrow=classic;html=1;fillColor=#d5e8d4;strokeColor=#82b366;" edge="1" parent="1">
          <mxGeometry width="50" height="50" relative="1" as="geometry">
            <mxPoint x="802" y="1397.75" as="sourcePoint" />
            <mxPoint x="973" y="1398.25" as="targetPoint" />
          </mxGeometry>
        </mxCell>
        <mxCell id="xxxQAEl9UntY1xKv4p_2-63" value="&lt;p&gt;&lt;font style=&quot;font-size: 28px&quot;&gt;LTR&lt;/font&gt;&lt;/p&gt;" style="rounded=0;whiteSpace=wrap;html=1;comic=0;pointerEvents=1;strokeColor=#6c8ebf;strokeWidth=1;fillColor=#dae8fc;" vertex="1" parent="1">
          <mxGeometry x="1203" y="1309.5" width="75" height="404.88" as="geometry" />
        </mxCell>
        <mxCell id="xxxQAEl9UntY1xKv4p_2-64" value="" style="shape=flexArrow;endArrow=classic;html=1;fillColor=#dae8fc;strokeColor=#6c8ebf;endWidth=66.66666666666667;endSize=11.6;" edge="1" parent="1">
          <mxGeometry width="50" height="50" relative="1" as="geometry">
            <mxPoint x="1290" y="1510.83" as="sourcePoint" />
            <mxPoint x="1379.5" y="1510.83" as="targetPoint" />
          </mxGeometry>
        </mxCell>
        <mxCell id="xxxQAEl9UntY1xKv4p_2-65" value="&lt;font style=&quot;font-size: 28px&quot;&gt;relevance&lt;/font&gt;" style="ellipse;whiteSpace=wrap;html=1;comic=0;pointerEvents=1;strokeColor=#82b366;strokeWidth=1;fillColor=#d5e8d4;" vertex="1" parent="1">
          <mxGeometry x="1391" y="1475" width="139" height="65" as="geometry" />
        </mxCell>
        <mxCell id="xxxQAEl9UntY1xKv4p_2-66" value="" style="endArrow=classic;html=1;entryX=0.5;entryY=1;entryDx=0;entryDy=0;exitX=0.5;exitY=0;exitDx=0;exitDy=0;" edge="1" parent="1" source="xxxQAEl9UntY1xKv4p_2-27" target="xxxQAEl9UntY1xKv4p_2-35">
          <mxGeometry width="50" height="50" relative="1" as="geometry">
            <mxPoint x="467" y="1574.5" as="sourcePoint" />
            <mxPoint x="555" y="1530.5" as="targetPoint" />
          </mxGeometry>
        </mxCell>
        <mxCell id="xxxQAEl9UntY1xKv4p_2-67" value="&lt;font style=&quot;font-size: 37px&quot;&gt;阶段3 精排&lt;/font&gt;" style="text;strokeColor=none;fillColor=none;html=1;fontSize=24;fontStyle=1;verticalAlign=middle;align=center;" vertex="1" parent="1">
          <mxGeometry x="1350" y="1290" width="100" height="40" as="geometry" />
        </mxCell>
        <mxCell id="xxxQAEl9UntY1xKv4p_2-68" value="" style="shape=table;html=1;whiteSpace=wrap;startSize=0;container=1;collapsible=0;childLayout=tableLayout;rounded=0;shadow=0;comic=0;pointerEvents=1;strokeWidth=1;backgroundOutline=0;strokeColor=#FFB570;" vertex="1" parent="1">
          <mxGeometry x="354.63" y="1309.5" width="385.75" height="99.5" as="geometry" />
        </mxCell>
        <mxCell id="xxxQAEl9UntY1xKv4p_2-69" style="shape=partialRectangle;html=1;whiteSpace=wrap;collapsible=0;dropTarget=0;pointerEvents=0;fillColor=none;top=0;left=0;bottom=0;right=0;points=[[0,0.5],[1,0.5]];portConstraint=eastwest;" vertex="1" parent="xxxQAEl9UntY1xKv4p_2-68">
          <mxGeometry width="385.75" height="50" as="geometry" />
        </mxCell>
        <mxCell id="xxxQAEl9UntY1xKv4p_2-70" style="shape=partialRectangle;html=1;whiteSpace=wrap;connectable=0;fillColor=#d80073;top=0;left=0;bottom=0;right=0;overflow=hidden;sketch=1;strokeColor=#A50040;fontColor=#ffffff;" vertex="1" parent="xxxQAEl9UntY1xKv4p_2-69">
          <mxGeometry width="128" height="50" as="geometry">
            <mxRectangle width="128" height="50" as="alternateBounds" />
          </mxGeometry>
        </mxCell>
        <mxCell id="xxxQAEl9UntY1xKv4p_2-71" style="shape=partialRectangle;html=1;whiteSpace=wrap;connectable=0;fillColor=#d80073;top=0;left=0;bottom=0;right=0;overflow=hidden;sketch=1;strokeColor=#A50040;fontColor=#ffffff;" vertex="1" parent="xxxQAEl9UntY1xKv4p_2-69">
          <mxGeometry x="128" width="130" height="50" as="geometry">
            <mxRectangle width="130" height="50" as="alternateBounds" />
          </mxGeometry>
        </mxCell>
        <mxCell id="xxxQAEl9UntY1xKv4p_2-72" style="shape=partialRectangle;html=1;whiteSpace=wrap;connectable=0;fillColor=#d80073;top=0;left=0;bottom=0;right=0;overflow=hidden;sketch=1;strokeColor=#A50040;strokeWidth=1;fontColor=#ffffff;" vertex="1" parent="xxxQAEl9UntY1xKv4p_2-69">
          <mxGeometry x="258" width="128" height="50" as="geometry">
            <mxRectangle width="128" height="50" as="alternateBounds" />
          </mxGeometry>
        </mxCell>
        <mxCell id="xxxQAEl9UntY1xKv4p_2-73" value="" style="shape=partialRectangle;html=1;whiteSpace=wrap;collapsible=0;dropTarget=0;pointerEvents=0;fillColor=none;top=0;left=0;bottom=0;right=0;points=[[0,0.5],[1,0.5]];portConstraint=eastwest;" vertex="1" parent="xxxQAEl9UntY1xKv4p_2-68">
          <mxGeometry y="50" width="385.75" height="50" as="geometry" />
        </mxCell>
        <mxCell id="xxxQAEl9UntY1xKv4p_2-74" value="" style="shape=partialRectangle;html=1;whiteSpace=wrap;connectable=0;fillColor=none;top=0;left=0;bottom=0;right=0;overflow=hidden;" vertex="1" parent="xxxQAEl9UntY1xKv4p_2-73">
          <mxGeometry width="128" height="50" as="geometry">
            <mxRectangle width="128" height="50" as="alternateBounds" />
          </mxGeometry>
        </mxCell>
        <mxCell id="xxxQAEl9UntY1xKv4p_2-75" value="&lt;font style=&quot;font-size: 28px&quot;&gt;&lt;font style=&quot;font-size: 28px&quot;&gt;Cos&lt;/font&gt;&lt;sub&gt;ij&lt;/sub&gt;&lt;/font&gt;" style="shape=partialRectangle;html=1;whiteSpace=wrap;connectable=0;fillColor=none;top=0;left=0;bottom=0;right=0;overflow=hidden;" vertex="1" parent="xxxQAEl9UntY1xKv4p_2-73">
          <mxGeometry x="128" width="130" height="50" as="geometry">
            <mxRectangle width="130" height="50" as="alternateBounds" />
          </mxGeometry>
        </mxCell>
        <mxCell id="xxxQAEl9UntY1xKv4p_2-76" value="" style="shape=partialRectangle;html=1;whiteSpace=wrap;connectable=0;fillColor=none;top=0;left=0;bottom=0;right=0;overflow=hidden;" vertex="1" parent="xxxQAEl9UntY1xKv4p_2-73">
          <mxGeometry x="258" width="128" height="50" as="geometry">
            <mxRectangle width="128" height="50" as="alternateBounds" />
          </mxGeometry>
        </mxCell>
        <mxCell id="xxxQAEl9UntY1xKv4p_2-77" value="&lt;font style=&quot;font-size: 28px&quot;&gt;V&lt;sub&gt;c&lt;/sub&gt;&lt;/font&gt;" style="rounded=0;whiteSpace=wrap;html=1;fillColor=#d5e8d4;strokeColor=#82b366;" vertex="1" parent="1">
          <mxGeometry x="1163" y="654" width="96" height="53" as="geometry" />
        </mxCell>
        <mxCell id="xxxQAEl9UntY1xKv4p_2-78" value="" style="shape=flexArrow;endArrow=classic;html=1;fillColor=#f8cecc;strokeColor=#b85450;" edge="1" parent="1">
          <mxGeometry width="50" height="50" relative="1" as="geometry">
            <mxPoint x="1210.5" y="751" as="sourcePoint" />
            <mxPoint x="1210.5" y="707" as="targetPoint" />
          </mxGeometry>
        </mxCell>
        <mxCell id="xxxQAEl9UntY1xKv4p_2-79" value="&lt;font style=&quot;font-size: 28px&quot;&gt;similarity=cos(V&lt;/font&gt;&lt;font&gt;&lt;span style=&quot;font-size: 23.3333px&quot;&gt;&lt;sub&gt;t&lt;/sub&gt;&lt;/span&gt;&lt;span style=&quot;font-size: 28px&quot;&gt;,V&lt;sub&gt;c&lt;/sub&gt;&lt;/span&gt;&lt;span style=&quot;font-size: 28px&quot;&gt;)&lt;/span&gt;&lt;/font&gt;" style="rounded=1;whiteSpace=wrap;html=1;fillColor=#fff2cc;strokeColor=#d6b656;" vertex="1" parent="1">
          <mxGeometry x="874" y="611.37" width="276" height="60" as="geometry" />
        </mxCell>
        <mxCell id="xxxQAEl9UntY1xKv4p_2-80" value="" style="endArrow=classic;html=1;entryX=0;entryY=0.5;entryDx=0;entryDy=0;exitX=1;exitY=0.5;exitDx=0;exitDy=0;" edge="1" parent="1" source="xxxQAEl9UntY1xKv4p_2-16" target="xxxQAEl9UntY1xKv4p_2-79">
          <mxGeometry width="50" height="50" relative="1" as="geometry">
            <mxPoint x="864.5" y="689.5" as="sourcePoint" />
            <mxPoint x="914.5" y="639.5" as="targetPoint" />
          </mxGeometry>
        </mxCell>
        <mxCell id="xxxQAEl9UntY1xKv4p_2-81" value="" style="endArrow=classic;html=1;exitX=0;exitY=0.5;exitDx=0;exitDy=0;entryX=1;entryY=0.5;entryDx=0;entryDy=0;" edge="1" parent="1" source="xxxQAEl9UntY1xKv4p_2-77" target="xxxQAEl9UntY1xKv4p_2-79">
          <mxGeometry width="50" height="50" relative="1" as="geometry">
            <mxPoint x="1086.5" y="680" as="sourcePoint" />
            <mxPoint x="1087" y="650.5" as="targetPoint" />
          </mxGeometry>
        </mxCell>
        <mxCell id="xxxQAEl9UntY1xKv4p_2-82" value="&lt;span style=&quot;font-size: 28px&quot;&gt;C&lt;/span&gt;" style="rounded=1;whiteSpace=wrap;html=1;fillColor=#dae8fc;strokeColor=#6c8ebf;" vertex="1" parent="1">
          <mxGeometry x="756" y="763" width="78.5" height="33.5" as="geometry" />
        </mxCell>
        <mxCell id="xxxQAEl9UntY1xKv4p_2-83" value="" style="shape=partialRectangle;whiteSpace=wrap;html=1;bottom=1;right=1;left=1;top=0;fillColor=none;routingCenterX=-0.5;" vertex="1" parent="1">
          <mxGeometry x="1294" y="956" width="120" height="27" as="geometry" />
        </mxCell>
        <mxCell id="xxxQAEl9UntY1xKv4p_2-84" value="&lt;font&gt;&lt;font style=&quot;font-size: 28px&quot;&gt;Tok&lt;/font&gt;&lt;sub&gt;&lt;font style=&quot;font-size: 20px&quot;&gt;1&lt;/font&gt;&lt;/sub&gt;&lt;/font&gt;" style="rounded=1;whiteSpace=wrap;html=1;fillColor=#e1d5e7;strokeColor=#9673a6;" vertex="1" parent="1">
          <mxGeometry x="1258" y="929" width="85" height="37" as="geometry" />
        </mxCell>
        <mxCell id="xxxQAEl9UntY1xKv4p_2-85" value="&lt;font&gt;&lt;font style=&quot;font-size: 28px&quot;&gt;Tok&lt;/font&gt;&lt;sub&gt;&lt;font style=&quot;font-size: 20px&quot;&gt;M&lt;/font&gt;&lt;/sub&gt;&lt;/font&gt;" style="rounded=1;whiteSpace=wrap;html=1;fillColor=#e1d5e7;strokeColor=#9673a6;" vertex="1" parent="1">
          <mxGeometry x="1372" y="928.5" width="78" height="37" as="geometry" />
        </mxCell>
        <mxCell id="xxxQAEl9UntY1xKv4p_2-86" value="&lt;font style=&quot;font-size: 28px&quot;&gt;[SEP]&lt;/font&gt;" style="rounded=1;whiteSpace=wrap;html=1;fillColor=#e1d5e7;strokeColor=#9673a6;" vertex="1" parent="1">
          <mxGeometry x="1458" y="929" width="84" height="36.5" as="geometry" />
        </mxCell>
        <mxCell id="xxxQAEl9UntY1xKv4p_2-87" value="&lt;font style=&quot;font-size: 28px&quot;&gt;[CLS]&lt;/font&gt;" style="rounded=1;whiteSpace=wrap;html=1;fillColor=#e1d5e7;strokeColor=#9673a6;" vertex="1" parent="1">
          <mxGeometry x="1164" y="929" width="85" height="36.5" as="geometry" />
        </mxCell>
        <mxCell id="xxxQAEl9UntY1xKv4p_2-88" value="&lt;font style=&quot;font-size: 28px&quot;&gt;LanguageModel&lt;/font&gt;" style="shape=ext;double=1;rounded=0;whiteSpace=wrap;html=1;fillColor=#ffe6cc;strokeColor=#d79b00;" vertex="1" parent="1">
          <mxGeometry x="1151" y="752.5" width="395.5" height="146" as="geometry" />
        </mxCell>
        <mxCell id="xxxQAEl9UntY1xKv4p_2-89" value="&lt;font&gt;&lt;font style=&quot;font-size: 28px&quot;&gt;E&lt;/font&gt;&lt;sub&gt;&lt;font style=&quot;font-size: 20px&quot;&gt;[CLS]&lt;/font&gt;&lt;/sub&gt;&lt;/font&gt;" style="rounded=1;whiteSpace=wrap;html=1;fillColor=#f8cecc;strokeColor=#b85450;strokeWidth=1;perimeterSpacing=4;" vertex="1" parent="1">
          <mxGeometry x="1171" y="835.5" width="71" height="37.5" as="geometry" />
        </mxCell>
        <mxCell id="xxxQAEl9UntY1xKv4p_2-90" value="&lt;font&gt;&lt;font style=&quot;font-size: 28px&quot;&gt;E&lt;/font&gt;&lt;sub&gt;&lt;font style=&quot;font-size: 20px&quot;&gt;1&lt;/font&gt;&lt;/sub&gt;&lt;/font&gt;" style="rounded=1;whiteSpace=wrap;html=1;fillColor=#f8cecc;strokeColor=#b85450;strokeWidth=1;perimeterSpacing=4;" vertex="1" parent="1">
          <mxGeometry x="1254.5" y="839.25" width="78.5" height="37.5" as="geometry" />
        </mxCell>
        <mxCell id="xxxQAEl9UntY1xKv4p_2-91" value="&lt;font&gt;&lt;font style=&quot;font-size: 28px&quot;&gt;E&lt;/font&gt;&lt;sub&gt;&lt;font style=&quot;font-size: 20px&quot;&gt;[SEP]&lt;/font&gt;&lt;/sub&gt;&lt;/font&gt;" style="rounded=1;whiteSpace=wrap;html=1;fillColor=#f8cecc;strokeColor=#b85450;strokeWidth=1;perimeterSpacing=4;" vertex="1" parent="1">
          <mxGeometry x="1456" y="838" width="74" height="37.5" as="geometry" />
        </mxCell>
        <mxCell id="xxxQAEl9UntY1xKv4p_2-92" value="&lt;font&gt;&lt;font style=&quot;font-size: 28px&quot;&gt;E&lt;/font&gt;&lt;sub&gt;&lt;font style=&quot;font-size: 20px&quot;&gt;M&lt;/font&gt;&lt;/sub&gt;&lt;/font&gt;" style="rounded=1;whiteSpace=wrap;html=1;fillColor=#f8cecc;strokeColor=#b85450;strokeWidth=1;perimeterSpacing=4;" vertex="1" parent="1">
          <mxGeometry x="1373.5" y="840.5" width="75" height="37.5" as="geometry" />
        </mxCell>
        <mxCell id="xxxQAEl9UntY1xKv4p_2-93" value="&lt;font style=&quot;font-size: 28px&quot;&gt;&lt;font style=&quot;font-size: 28px&quot;&gt;T&lt;/font&gt;&lt;sub&gt;1&lt;/sub&gt;&lt;/font&gt;" style="rounded=1;whiteSpace=wrap;html=1;fillColor=#dae8fc;strokeColor=#6c8ebf;" vertex="1" parent="1">
          <mxGeometry x="1254.5" y="763" width="78.5" height="33.5" as="geometry" />
        </mxCell>
        <mxCell id="xxxQAEl9UntY1xKv4p_2-94" value="&lt;font&gt;&lt;font style=&quot;font-size: 28px&quot;&gt;T&lt;/font&gt;&lt;sub&gt;&lt;font style=&quot;font-size: 20px&quot;&gt;[SEP]&lt;/font&gt;&lt;/sub&gt;&lt;/font&gt;" style="rounded=1;whiteSpace=wrap;html=1;fillColor=#dae8fc;strokeColor=#6c8ebf;" vertex="1" parent="1">
          <mxGeometry x="1456" y="763" width="72" height="33.5" as="geometry" />
        </mxCell>
        <mxCell id="xxxQAEl9UntY1xKv4p_2-95" value="&lt;font&gt;&lt;font style=&quot;font-size: 28px&quot;&gt;T&lt;/font&gt;&lt;sub&gt;&lt;font style=&quot;font-size: 20px&quot;&gt;M&lt;/font&gt;&lt;/sub&gt;&lt;/font&gt;" style="rounded=1;whiteSpace=wrap;html=1;fillColor=#dae8fc;strokeColor=#6c8ebf;" vertex="1" parent="1">
          <mxGeometry x="1372" y="763" width="75" height="33.5" as="geometry" />
        </mxCell>
        <mxCell id="xxxQAEl9UntY1xKv4p_2-96" value="" style="shape=flexArrow;endArrow=classic;html=1;" edge="1" parent="1">
          <mxGeometry width="50" height="50" relative="1" as="geometry">
            <mxPoint x="1219" y="923" as="sourcePoint" />
            <mxPoint x="1219" y="879" as="targetPoint" />
          </mxGeometry>
        </mxCell>
        <mxCell id="xxxQAEl9UntY1xKv4p_2-97" value="" style="shape=flexArrow;endArrow=classic;html=1;" edge="1" parent="1">
          <mxGeometry width="50" height="50" relative="1" as="geometry">
            <mxPoint x="1294" y="923" as="sourcePoint" />
            <mxPoint x="1294" y="879" as="targetPoint" />
          </mxGeometry>
        </mxCell>
        <mxCell id="xxxQAEl9UntY1xKv4p_2-98" value="" style="shape=flexArrow;endArrow=classic;html=1;" edge="1" parent="1">
          <mxGeometry width="50" height="50" relative="1" as="geometry">
            <mxPoint x="1414" y="923" as="sourcePoint" />
            <mxPoint x="1414" y="879" as="targetPoint" />
          </mxGeometry>
        </mxCell>
        <mxCell id="xxxQAEl9UntY1xKv4p_2-99" value="" style="shape=flexArrow;endArrow=classic;html=1;" edge="1" parent="1">
          <mxGeometry width="50" height="50" relative="1" as="geometry">
            <mxPoint x="1509" y="923" as="sourcePoint" />
            <mxPoint x="1509" y="879" as="targetPoint" />
          </mxGeometry>
        </mxCell>
        <mxCell id="xxxQAEl9UntY1xKv4p_2-100" value="" style="shape=waypoint;sketch=0;size=6;pointerEvents=1;points=[];fillColor=none;resizable=0;rotatable=0;perimeter=centerPerimeter;snapToPoint=1;strokeWidth=1;strokeColor=#787878;" vertex="1" parent="1">
          <mxGeometry x="1328.5" y="839.5" width="40" height="40" as="geometry" />
        </mxCell>
        <mxCell id="xxxQAEl9UntY1xKv4p_2-101" value="" style="shape=waypoint;sketch=0;size=6;pointerEvents=1;points=[];fillColor=none;resizable=0;rotatable=0;perimeter=centerPerimeter;snapToPoint=1;strokeWidth=1;strokeColor=#787878;" vertex="1" parent="1">
          <mxGeometry x="1339.5" y="839.5" width="40" height="40" as="geometry" />
        </mxCell>
        <mxCell id="xxxQAEl9UntY1xKv4p_2-102" value="" style="shape=waypoint;sketch=0;size=6;pointerEvents=1;points=[];fillColor=none;resizable=0;rotatable=0;perimeter=centerPerimeter;snapToPoint=1;strokeWidth=1;strokeColor=#787878;" vertex="1" parent="1">
          <mxGeometry x="1328.5" y="756.5" width="40" height="40" as="geometry" />
        </mxCell>
        <mxCell id="xxxQAEl9UntY1xKv4p_2-103" value="" style="shape=waypoint;sketch=0;size=6;pointerEvents=1;points=[];fillColor=none;resizable=0;rotatable=0;perimeter=centerPerimeter;snapToPoint=1;strokeWidth=1;strokeColor=#787878;" vertex="1" parent="1">
          <mxGeometry x="1339.5" y="756.5" width="40" height="40" as="geometry" />
        </mxCell>
        <mxCell id="xxxQAEl9UntY1xKv4p_2-104" value="&lt;span style=&quot;font-size: 28px&quot;&gt;C&lt;/span&gt;" style="rounded=1;whiteSpace=wrap;html=1;fillColor=#dae8fc;strokeColor=#6c8ebf;" vertex="1" parent="1">
          <mxGeometry x="1170" y="763" width="78.5" height="33.5" as="geometry" />
        </mxCell>
        <mxCell id="xxxQAEl9UntY1xKv4p_2-105" style="shape=partialRectangle;html=1;whiteSpace=wrap;collapsible=0;dropTarget=0;pointerEvents=0;fillColor=none;top=0;left=0;bottom=0;right=0;points=[[0,0.5],[1,0.5]];portConstraint=eastwest;" vertex="1" parent="1">
          <mxGeometry x="365" y="1365" width="385.75" height="52" as="geometry" />
        </mxCell>
        <mxCell id="xxxQAEl9UntY1xKv4p_2-106" style="shape=partialRectangle;html=1;whiteSpace=wrap;connectable=0;fillColor=#33FF99;top=0;left=0;bottom=0;right=0;overflow=hidden;sketch=1;strokeColor=#A50040;fontColor=#ffffff;" vertex="1" parent="xxxQAEl9UntY1xKv4p_2-105">
          <mxGeometry width="128" height="52" as="geometry">
            <mxRectangle width="128" height="50" as="alternateBounds" />
          </mxGeometry>
        </mxCell>
        <mxCell id="xxxQAEl9UntY1xKv4p_2-107" style="shape=partialRectangle;html=1;whiteSpace=wrap;connectable=0;fillColor=#33FF99;top=0;left=0;bottom=0;right=0;overflow=hidden;sketch=1;strokeColor=#A50040;fontColor=#ffffff;" vertex="1" parent="xxxQAEl9UntY1xKv4p_2-105">
          <mxGeometry x="128" width="130" height="52" as="geometry">
            <mxRectangle width="130" height="50" as="alternateBounds" />
          </mxGeometry>
        </mxCell>
        <mxCell id="xxxQAEl9UntY1xKv4p_2-108" style="shape=partialRectangle;html=1;whiteSpace=wrap;connectable=0;fillColor=#33FF33;top=0;left=0;bottom=0;right=0;overflow=hidden;sketch=1;strokeColor=#A50040;strokeWidth=1;fontColor=#ffffff;" vertex="1" parent="xxxQAEl9UntY1xKv4p_2-105">
          <mxGeometry x="258" width="128" height="52" as="geometry">
            <mxRectangle width="128" height="50" as="alternateBounds" />
          </mxGeometry>
        </mxCell>
        <mxCell id="xxxQAEl9UntY1xKv4p_2-109" value="" style="shape=waypoint;sketch=0;size=6;pointerEvents=1;points=[];fillColor=none;resizable=0;rotatable=0;perimeter=centerPerimeter;snapToPoint=1;strokeWidth=1;strokeColor=#787878;" vertex="1" parent="1">
          <mxGeometry x="928" y="925" width="40" height="40" as="geometry" />
        </mxCell>
        <mxCell id="xxxQAEl9UntY1xKv4p_2-110" value="" style="shape=waypoint;sketch=0;size=6;pointerEvents=1;points=[];fillColor=none;resizable=0;rotatable=0;perimeter=centerPerimeter;snapToPoint=1;strokeWidth=1;strokeColor=#787878;" vertex="1" parent="1">
          <mxGeometry x="915.25" y="925.5" width="40" height="40" as="geometry" />
        </mxCell>
        <mxCell id="xxxQAEl9UntY1xKv4p_2-111" value="" style="shape=waypoint;sketch=0;size=6;pointerEvents=1;points=[];fillColor=none;resizable=0;rotatable=0;perimeter=centerPerimeter;snapToPoint=1;strokeWidth=1;strokeColor=#787878;" vertex="1" parent="1">
          <mxGeometry x="1328.5" y="926" width="40" height="40" as="geometry" />
        </mxCell>
        <mxCell id="xxxQAEl9UntY1xKv4p_2-112" value="" style="shape=waypoint;sketch=0;size=6;pointerEvents=1;points=[];fillColor=none;resizable=0;rotatable=0;perimeter=centerPerimeter;snapToPoint=1;strokeWidth=1;strokeColor=#787878;" vertex="1" parent="1">
          <mxGeometry x="1344" y="926.5" width="40" height="40" as="geometry" />
        </mxCell>
        <mxCell id="xxxQAEl9UntY1xKv4p_2-113" value="" style="shape=cylinder3;whiteSpace=wrap;html=1;boundedLbl=1;backgroundOutline=1;size=15;fontSize=33;strokeWidth=5;" vertex="1" parent="1">
          <mxGeometry x="1017.5" y="1034" width="216.5" height="91" as="geometry" />
        </mxCell>
        <mxCell id="xxxQAEl9UntY1xKv4p_2-114" style="edgeStyle=orthogonalEdgeStyle;rounded=0;orthogonalLoop=1;jettySize=auto;html=1;entryX=0.5;entryY=1;entryDx=0;entryDy=0;fontSize=33;" edge="1" parent="1" source="xxxQAEl9UntY1xKv4p_2-116" target="xxxQAEl9UntY1xKv4p_2-3">
          <mxGeometry relative="1" as="geometry" />
        </mxCell>
        <mxCell id="xxxQAEl9UntY1xKv4p_2-115" style="edgeStyle=orthogonalEdgeStyle;rounded=0;orthogonalLoop=1;jettySize=auto;html=1;entryX=0.5;entryY=1;entryDx=0;entryDy=0;fontSize=33;" edge="1" parent="1" source="xxxQAEl9UntY1xKv4p_2-116" target="xxxQAEl9UntY1xKv4p_2-83">
          <mxGeometry relative="1" as="geometry" />
        </mxCell>
        <mxCell id="xxxQAEl9UntY1xKv4p_2-116" value="&lt;font style=&quot;font-size: 33px&quot;&gt;MIX dataset&lt;/font&gt;" style="text;html=1;strokeColor=none;fillColor=none;align=center;verticalAlign=middle;whiteSpace=wrap;rounded=0;dashed=1;dashPattern=1 2;" vertex="1" parent="1">
          <mxGeometry x="1027.75" y="1073" width="198" height="30" as="geometry" />
        </mxCell>
        <mxCell id="xxxQAEl9UntY1xKv4p_2-117" value="text" style="text;html=1;strokeColor=none;fillColor=none;align=center;verticalAlign=middle;whiteSpace=wrap;rounded=0;fontSize=33;" vertex="1" parent="1">
          <mxGeometry x="880" y="1034" width="60" height="30" as="geometry" />
        </mxCell>
        <mxCell id="xxxQAEl9UntY1xKv4p_2-118" value="code" style="text;html=1;strokeColor=none;fillColor=none;align=center;verticalAlign=middle;whiteSpace=wrap;rounded=0;fontSize=33;" vertex="1" parent="1">
          <mxGeometry x="1366" y="1034" width="60" height="30" as="geometry" />
        </mxCell>
        <UserObject label="&lt;font style=&quot;font-size: 38px&quot;&gt;&lt;font style=&quot;font-size: 38px&quot;&gt;func&lt;sub&gt;1&lt;/sub&gt;&lt;/font&gt;&lt;/font&gt;" placeholders="1" name="Variable" id="xxxQAEl9UntY1xKv4p_2-119">
          <mxCell style="text;html=1;strokeColor=none;fillColor=none;align=center;verticalAlign=middle;whiteSpace=wrap;overflow=hidden;" vertex="1" parent="1">
            <mxGeometry x="365" y="1255.5" width="125.5" height="44" as="geometry" />
          </mxCell>
        </UserObject>
        <mxCell id="xxxQAEl9UntY1xKv4p_2-120" value="" style="rounded=1;whiteSpace=wrap;html=1;strokeWidth=6;strokeColor=#787878;" vertex="1" parent="1">
          <mxGeometry x="50" y="527.5" width="600.5" height="630" as="geometry" />
        </mxCell>
        <mxCell id="xxxQAEl9UntY1xKv4p_2-121" value="" style="rounded=0;whiteSpace=wrap;html=1;fillColor=#f5f5f5;strokeColor=#666666;fontColor=#333333;" vertex="1" parent="1">
          <mxGeometry x="512.25" y="932.5" width="80" height="182" as="geometry" />
        </mxCell>
        <mxCell id="xxxQAEl9UntY1xKv4p_2-122" value="" style="edgeStyle=orthogonalEdgeStyle;rounded=0;orthogonalLoop=1;jettySize=auto;html=1;" edge="1" parent="1" source="xxxQAEl9UntY1xKv4p_2-123" target="xxxQAEl9UntY1xKv4p_2-127">
          <mxGeometry relative="1" as="geometry" />
        </mxCell>
        <mxCell id="xxxQAEl9UntY1xKv4p_2-123" value="&lt;font style=&quot;font-size: 28px&quot;&gt;Bug 报告&lt;/font&gt;" style="rounded=0;whiteSpace=wrap;html=1;fillColor=#ffe6cc;strokeColor=#d79b00;" vertex="1" parent="1">
          <mxGeometry x="70" y="649.25" width="150" height="64.5" as="geometry" />
        </mxCell>
        <mxCell id="xxxQAEl9UntY1xKv4p_2-124" style="edgeStyle=orthogonalEdgeStyle;rounded=0;orthogonalLoop=1;jettySize=auto;html=1;entryX=0;entryY=0.5;entryDx=0;entryDy=0;" edge="1" parent="1" source="xxxQAEl9UntY1xKv4p_2-125" target="xxxQAEl9UntY1xKv4p_2-121">
          <mxGeometry relative="1" as="geometry" />
        </mxCell>
        <mxCell id="xxxQAEl9UntY1xKv4p_2-125" value="&lt;font style=&quot;font-size: 28px&quot;&gt;代码仓库&lt;/font&gt;" style="shape=cylinder3;whiteSpace=wrap;html=1;boundedLbl=1;backgroundOutline=1;size=15;fillColor=#dae8fc;strokeColor=#6c8ebf;" vertex="1" parent="1">
          <mxGeometry x="170" y="952.25" width="227" height="142.5" as="geometry" />
        </mxCell>
        <mxCell id="xxxQAEl9UntY1xKv4p_2-126" value="" style="edgeStyle=orthogonalEdgeStyle;rounded=0;orthogonalLoop=1;jettySize=auto;html=1;exitX=0.5;exitY=1;exitDx=0;exitDy=0;" edge="1" parent="1" source="xxxQAEl9UntY1xKv4p_2-127" target="xxxQAEl9UntY1xKv4p_2-125">
          <mxGeometry relative="1" as="geometry">
            <mxPoint x="337" y="850.5" as="sourcePoint" />
          </mxGeometry>
        </mxCell>
        <mxCell id="xxxQAEl9UntY1xKv4p_2-127" value="&lt;font style=&quot;font-size: 28px&quot;&gt;LTR&lt;/font&gt;" style="rounded=1;whiteSpace=wrap;html=1;fillColor=#f8cecc;strokeColor=#b85450;" vertex="1" parent="1">
          <mxGeometry x="296" y="638.75" width="193" height="83.5" as="geometry" />
        </mxCell>
        <mxCell id="xxxQAEl9UntY1xKv4p_2-128" value="&lt;font style=&quot;font-size: 37px&quot;&gt;阶段1 粗排&lt;/font&gt;" style="text;strokeColor=none;fillColor=none;html=1;fontSize=24;fontStyle=1;verticalAlign=middle;align=center;" vertex="1" parent="1">
          <mxGeometry x="474.5" y="565" width="100" height="40" as="geometry" />
        </mxCell>
        <UserObject label="&lt;font style=&quot;font-size: 31px&quot;&gt;Top-k 候选文件&lt;/font&gt;" placeholders="1" name="Variable" id="xxxQAEl9UntY1xKv4p_2-129">
          <mxCell style="text;html=1;strokeColor=none;fillColor=none;align=center;verticalAlign=middle;whiteSpace=wrap;overflow=hidden;" vertex="1" parent="1">
            <mxGeometry x="410" y="835.5" width="219.5" height="74" as="geometry" />
          </mxCell>
        </UserObject>
        <mxCell id="xxxQAEl9UntY1xKv4p_2-130" value="" style="shape=waypoint;sketch=0;size=6;pointerEvents=1;points=[];fillColor=none;resizable=0;rotatable=0;perimeter=centerPerimeter;snapToPoint=1;strokeWidth=1;strokeColor=#787878;" vertex="1" parent="1">
          <mxGeometry x="532.25" y="1021.5" width="40" height="40" as="geometry" />
        </mxCell>
        <mxCell id="xxxQAEl9UntY1xKv4p_2-131" value="&lt;font&gt;&lt;span style=&quot;font-size: 28px&quot;&gt;s&lt;/span&gt;&lt;sub&gt;&lt;font style=&quot;font-size: 20px&quot;&gt;2&lt;/font&gt;&lt;/sub&gt;&lt;/font&gt;" style="ellipse;whiteSpace=wrap;html=1;aspect=fixed;" vertex="1" parent="1">
          <mxGeometry x="537.25" y="993" width="37" height="37" as="geometry" />
        </mxCell>
        <mxCell id="xxxQAEl9UntY1xKv4p_2-132" value="&lt;font&gt;&lt;font style=&quot;font-size: 28px&quot;&gt;s&lt;/font&gt;&lt;sub&gt;&lt;font style=&quot;font-size: 20px&quot;&gt;k&lt;/font&gt;&lt;/sub&gt;&lt;/font&gt;" style="ellipse;whiteSpace=wrap;html=1;aspect=fixed;" vertex="1" parent="1">
          <mxGeometry x="536.25" y="1073.5" width="39" height="39" as="geometry" />
        </mxCell>
        <mxCell id="xxxQAEl9UntY1xKv4p_2-133" value="" style="shape=waypoint;sketch=0;size=6;pointerEvents=1;points=[];fillColor=none;resizable=0;rotatable=0;perimeter=centerPerimeter;snapToPoint=1;strokeWidth=1;strokeColor=#787878;" vertex="1" parent="1">
          <mxGeometry x="532.25" y="1041.5" width="40" height="40" as="geometry" />
        </mxCell>
        <mxCell id="xxxQAEl9UntY1xKv4p_2-134" value="&lt;font&gt;&lt;font style=&quot;font-size: 28px&quot;&gt;s&lt;/font&gt;&lt;sub&gt;&lt;font style=&quot;font-size: 20px&quot;&gt;1&lt;/font&gt;&lt;/sub&gt;&lt;/font&gt;" style="ellipse;whiteSpace=wrap;html=1;aspect=fixed;" vertex="1" parent="1">
          <mxGeometry x="532.75" y="936.5" width="39" height="39" as="geometry" />
        </mxCell>
        <mxCell id="xxxQAEl9UntY1xKv4p_2-136" value="" style="shape=curlyBracket;whiteSpace=wrap;html=1;rounded=1;flipH=1;fontSize=37;rotation=90;strokeWidth=5;dashed=1;dashPattern=1 1;" vertex="1" parent="1">
          <mxGeometry x="1214.5" y="1565" width="60.5" height="530" as="geometry" />
        </mxCell>
        <mxCell id="xxxQAEl9UntY1xKv4p_2-137" value="特征融合" style="text;html=1;strokeColor=none;fillColor=none;align=center;verticalAlign=middle;whiteSpace=wrap;rounded=0;fontSize=37;" vertex="1" parent="1">
          <mxGeometry x="1148" y="1880" width="180.5" height="30" as="geometry" />
        </mxCell>
        <mxCell id="xxxQAEl9UntY1xKv4p_2-138" value="" style="shape=curlyBracket;whiteSpace=wrap;html=1;rounded=1;flipH=1;fontSize=37;rotation=90;strokeWidth=5;dashed=1;dashPattern=1 1;" vertex="1" parent="1">
          <mxGeometry x="562" y="1466" width="60.5" height="730" as="geometry" />
        </mxCell>
        <mxCell id="xxxQAEl9UntY1xKv4p_2-139" value="函数级语义交互特征提取" style="text;html=1;strokeColor=none;fillColor=none;align=center;verticalAlign=middle;whiteSpace=wrap;rounded=0;fontSize=37;" vertex="1" parent="1">
          <mxGeometry x="372.5" y="1890" width="435.5" height="30" as="geometry" />
        </mxCell>
      </root>
    </mxGraphModel>
  </diagram>
</mxfile>
